# File created by Blade
# Date/Time:  Tue Apr 07 21:12:45 2015
#---------------------------------------------------------
:version 1.10
:name HOM
:units
  mass 1.0
  length 1.000000
  angle deg
:documentation
     Acclaim Skeleton File
:root
   axis xyz
   order TX TY TZ RX RY RZ
   position 0.000000 0.000000 0.000000
   orientation 0 0 0
:bonedata
   begin
      id 1
      name Spine_dum
      direction 0.000000 1.000000 0.000000
      length 4.885285
      axis 0.0 0.0 0.0 xyz
   end
   begin
      id 2
      name LeftUpLeg_dum
      direction 1.000000 0.000000 0.000000
      length 2.672193
      axis 0.0 0.0 0.0 xyz
   end
   begin
      id 3
      name RightUpLeg_dum
      direction -1.000000 0.000000 0.000000
      length 2.672193
      axis 0.0 0.0 0.0 xyz
   end
   begin
      id 4
      name Spine
      direction 0.000000 1.000000 0.000000
      length 0.000000
      axis 0.0 0.0 0.0 xyz
      dof rx ry rz
   end
   begin
      id 5
      name Spine_dum1
      direction 0.000000 1.000000 0.000000
      length 16.494159
      axis 0.0 0.0 0.0 xyz
   end
   begin
      id 6
      name Spine_dum2
      direction 0.000000 1.000000 0.000000
      length 10.663448
      axis 0.0 0.0 0.0 xyz
   end
   begin
      id 7
      name Spine_dum3
      direction 0.000000 1.000000 0.000000
      length 10.663448
      axis 0.0 0.0 0.0 xyz
   end
   begin
      id 8
      name Head
      direction 0.000000 1.000000 0.000000
      length 4.527550
      axis 0.0 0.0 0.0 xyz
      dof rx ry rz
   end
   begin
      id 9
      name LeftShoulder
      direction 1.000000 0.000000 0.000000
      length 7.531907
      axis 0.0 0.0 -90.0 xyz
      dof rx ry rz
   end
   begin
      id 10
      name LeftArm
      direction 1.000000 0.000000 0.000000
      length 10.229199
      axis 0.0 0.0 -90.0 xyz
      dof rx ry rz
   end
   begin
      id 11
      name LeftForeArm
      direction 1.000000 0.000000 0.000000
      length 8.673495
      axis 0.0 0.0 -90.0 xyz
      dof ry rz rx
   end
   begin
      id 12
      name LeftHand
      direction 0.000000 0.000000 0.000000
      length 0.000000
      axis 0.0 0.0 -90.0 xyz
      dof rx ry rz
   end
   begin
      id 13
      name LeftHand_dum1
      direction 0.000000 0.000000 0.000000
      length 0.000000
      axis 0.0 0.0 -90.0 xyz
   end
   begin
      id 14
      name LeftHand_dum2
      direction 1.000000 0.000000 0.000000
      length 3.937000
      axis 0.0 0.0 -90.0 xyz
   end
   begin
      id 15
      name LeftHandThumb1
      direction 0.000000 0.000000 1.000000
      length 3.937000
      axis 0.0 0.0 -90.0 xyz
      dof rx rz ry
   end
   begin
      id 16
      name RightShoulder
      direction -1.000000 0.000000 0.000000
      length 7.531907
      axis 0.0 0.0 90.0 xyz
      dof rx ry rz
   end
   begin
      id 17
      name RightArm
      direction -1.000000 0.000000 0.000000
      length 10.229199
      axis 0.0 0.0 90.0 xyz
      dof rx ry rz
   end
   begin
      id 18
      name RightForeArm
      direction -1.000000 0.000000 0.000000
      length 8.673495
      axis 0.0 0.0 90.0 xyz
      dof ry rz rx
   end
   begin
      id 19
      name RightHand
      direction 0.000000 0.000000 0.000000
      length 0.000000
      axis 0.0 0.0 90.0 xyz
      dof rx ry rz
   end
   begin
      id 20
      name RightHand_dum1
      direction 0.000000 0.000000 0.000000
      length 0.000000
      axis 0.0 0.0 90.0 xyz
   end
   begin
      id 21
      name RightHand_dum2
      direction -1.000000 0.000000 0.000000
      length 3.937000
      axis 0.0 0.0 90.0 xyz
   end
   begin
      id 22
      name RightHandThumb1
      direction 0.000000 0.000000 1.000000
      length 3.937000
      axis 0.0 0.0 90.0 xyz
      dof rx rz ry
   end
   begin
      id 23
      name LeftUpLeg
      direction 0.000000 -1.000000 0.000000
      length 16.263388
      axis 0.0 0.0 0.0 xyz
      dof rx ry rz
   end
   begin
      id 24
      name LeftLeg
      direction 0.000000 -1.000000 0.000000
      length 14.328163
      axis 0.0 0.0 0.0 xyz
      dof rx ry rz
   end
   begin
      id 25
      name LeftFoot
      direction 0.000000 -0.258819 0.965926
      length 5.031290
      axis 15.0 0.0 0.0 xyz
      dof rx ry rz
   end
   begin
      id 26
      name LeftToeBase
      direction 0.000000 0.000000 1.000000
      length 2.952750
      axis 0.0 0.0 0.0 xyz
      dof rx ry rz
   end
   begin
      id 27
      name RightUpLeg
      direction 0.000000 -1.000000 0.000000
      length 16.263388
      axis 0.0 0.0 0.0 xyz
      dof rx ry rz
   end
   begin
      id 28
      name RightLeg
      direction 0.000000 -1.000000 0.000000
      length 14.328163
      axis 0.0 0.0 0.0 xyz
      dof rx ry rz
   end
   begin
      id 29
      name RightFoot
      direction 0.000000 -0.258819 0.965926
      length 5.031290
      axis 15.0 0.0 0.0 xyz
      dof rx ry rz
   end
   begin
      id 30
      name RightToeBase
      direction 0.000000 0.000000 1.000000
      length 2.952750
      axis 0.0 0.0 0.0 xyz
      dof rx ry rz
   end
:hierarchy
   begin
      root Spine_dum LeftUpLeg_dum RightUpLeg_dum
      Spine_dum Spine
      LeftUpLeg_dum LeftUpLeg
      RightUpLeg_dum RightUpLeg
      Spine Spine_dum1 Spine_dum2 Spine_dum3
      Spine_dum1 Head
      Spine_dum2 LeftShoulder
      Spine_dum3 RightShoulder
      LeftShoulder LeftArm
      LeftArm LeftForeArm
      LeftForeArm LeftHand
      LeftHand LeftHand_dum1 LeftHand_dum2
      LeftHand_dum1 LeftHandThumb1
      RightShoulder RightArm
      RightArm RightForeArm
      RightForeArm RightHand
      RightHand RightHand_dum1 RightHand_dum2
      RightHand_dum1 RightHandThumb1
      LeftUpLeg LeftLeg
      LeftLeg LeftFoot
      LeftFoot LeftToeBase
      RightUpLeg RightLeg
      RightLeg RightFoot
      RightFoot RightToeBase
   end

# File created by Blade
# Date/Time:  Tue Apr 07 21:12:38 2015
# Frame Rate: 120.000 fps
#------------------------------------------------------
:FULLY-SPECIFIED
:DEGREES
196
root 24.255443 32.129811 5.336309 15.078375 -78.241557 2.172352
Spine 5.961281 -4.669296 -3.171590
Head 10.287349 -8.584030 9.273191
LeftShoulder -12.872567 47.102947 11.264201
LeftArm 56.949816 10.226774 -77.090790
LeftForeArm 2.250147 -0.000000 21.516761
LeftHand 7.907698 -0.000000 13.221505
LeftHandThumb1 -26.253704 0.000000 33.147579
RightShoulder -1.946406 -3.853118 -16.438709
RightArm 18.413313 -11.949360 91.177813
RightForeArm -0.586111 -0.000000 18.964516
RightHand 6.875026 0.000000 -8.815553
RightHandThumb1 -24.326973 -0.000000 -32.862282
LeftUpLeg -30.816680 -2.927547 -2.330023
LeftLeg 16.945353 -0.000000 -0.000000
LeftFoot -10.485848 27.871813 -13.177093
LeftToeBase -10.560519 -0.000000 0.000000
RightUpLeg -22.957516 -7.771432 5.127137
RightLeg 52.177616 -0.000000 -0.000000
RightFoot -13.862596 -8.007916 15.644975
RightToeBase -13.665727 -0.000000 0.000000
197
root 24.462039 32.103946 5.334004 15.474025 -78.745190 2.038646
Spine 6.190868 -4.549834 -3.086576
Head 9.777657 -8.475723 9.311894
LeftShoulder -12.610272 46.949173 11.397221
LeftArm 57.143219 10.681004 -76.829844
LeftForeArm 2.262344 -0.000000 21.239941
LeftHand 8.064855 0.000000 13.199504
LeftHandThumb1 -26.253704 0.000000 33.147579
RightShoulder -1.725709 -3.486211 -16.553820
RightArm 18.647819 -11.504347 91.489341
RightForeArm -1.038332 -0.000000 18.550856
RightHand 7.264509 -0.000000 -8.713360
RightHandThumb1 -24.326973 -0.000000 -32.862282
LeftUpLeg -31.552294 -2.719381 -2.360806
LeftLeg 17.165052 -0.000000 -0.000000
LeftFoot -10.210711 28.070421 -13.052262
LeftToeBase -10.562833 -0.000000 0.000000
RightUpLeg -22.708059 -7.667989 5.196065
RightLeg 51.708123 -0.000000 -0.000000
RightFoot -13.788851 -8.253358 15.457209
RightToeBase -13.754302 -0.000000 0.000000
198
root 24.678737 32.079638 5.336525 15.702216 -79.319458 2.120411
Spine 6.407473 -4.370355 -3.067973
Head 9.240617 -8.359127 9.381632
LeftShoulder -12.353663 46.818254 11.540632
LeftArm 57.368899 11.043555 -76.677826
LeftForeArm 2.239841 -0.000000 20.949166
LeftHand 8.401616 -0.000000 12.850660
LeftHandThumb1 -26.253704 0.000000 33.147579
RightShoulder -1.529582 -3.145135 -16.620271
RightArm 18.894388 -11.517119 91.531404
RightForeArm -1.085125 -0.000000 18.359441
RightHand 7.316593 0.000000 -8.635066
RightHandThumb1 -24.326973 -0.000000 -32.862282
LeftUpLeg -32.197845 -2.741254 -2.317198
LeftLeg 17.068786 -0.000000 -0.000000
LeftFoot -9.909313 28.504157 -13.108758
LeftToeBase -10.642083 -0.000000 0.000000
RightUpLeg -22.495830 -7.349602 5.160840
RightLeg 51.100763 -0.000000 -0.000000
RightFoot -13.733047 -8.572555 15.252684
RightToeBase -14.115868 -0.000000 0.000000
199
root 24.897067 32.051550 5.332639 16.048442 -79.909821 2.074632
Spine 6.655301 -4.184471 -3.053844
Head 8.692690 -8.195027 9.457660
LeftShoulder -12.095257 46.621569 11.728464
LeftArm 57.513828 11.402150 -76.559264
LeftForeArm 2.103090 0.000000 20.799650
LeftHand 8.227477 -0.000000 12.494673
LeftHandThumb1 -26.253704 0.000000 33.147579
RightShoulder -1.335670 -2.802307 -16.692056
RightArm 19.148539 -11.666014 91.522429
RightForeArm -0.958291 -0.000000 18.269649
RightHand 7.264230 0.000000 -8.551285
RightHandThumb1 -24.326973 -0.000000 -32.862282
LeftUpLeg -33.005133 -2.428437 -2.412733
LeftLeg 17.308474 -0.000000 -0.000000
LeftFoot -9.591822 28.780311 -12.923528
LeftToeBase -10.511371 -0.000000 0.000000
RightUpLeg -22.434117 -7.151318 5.154302
RightLeg 50.629143 -0.000000 -0.000000
RightFoot -13.622369 -8.988994 15.032156
RightToeBase -14.022152 -0.000000 0.000000
